<?xml version="1.0" encoding="UTF-8"?>
<svg id="Layer_2" data-name="Layer 2" xmlns="http://www.w3.org/2000/svg" viewBox="0 0 631.49 290.73">
  <defs>
    <style>
      .cls-1 {
        font-size: 8.87px;
      }

      .cls-1, .cls-2, .cls-3 {
        font-family: FranklinGothic-Medium, 'Franklin Gothic Medium';
        font-weight: 500;
      }

      .cls-4 {
        letter-spacing: -.02em;
      }

      .cls-5 {
        fill: none;
      }

      .cls-5, .cls-6 {
        stroke: #000;
        stroke-miterlimit: 10;
      }

      .cls-6 {
        fill: #6effb7;
      }

      .cls-7 {
        letter-spacing: .01em;
      }

      .cls-2 {
        font-size: 6.53px;
      }

      .cls-8 {
        letter-spacing: -.01em;
      }

      .cls-9 {
        letter-spacing: 0em;
      }

      .cls-10 {
        letter-spacing: -.02em;
      }

      .cls-11 {
        letter-spacing: 0em;
      }

      .cls-3 {
        font-size: 12.2px;
      }
    </style>
  </defs>
  <g id="Layer_2-2" data-name="Layer 2">
    <polygon class="cls-6" points="543.19 58.12 543.19 154.14 399.7 154.14 399.7 20.8 294.62 20.8 294.62 154.14 144.82 154.14 144.82 106.95 144.82 .5 47.14 .5 47.14 106.95 .5 106.95 .5 196.4 43.85 196.4 43.85 225.48 543.19 225.48 543.19 290.23 630.99 290.23 630.99 58.12 543.19 58.12"/>
    <rect class="cls-5" x="47.14" y=".5" width="34.84" height="106.45"/>
    <rect class="cls-5" x="103.83" y=".5" width="40.98" height="53.23"/>
    <rect class="cls-5" x="100.85" y="70.43" width="43.97" height="18.93"/>
    <rect class="cls-5" x="103.83" y="89.36" width="40.98" height="17.59"/>
    <rect class="cls-5" x=".5" y="106.95" width="68.45" height="72.64"/>
    <rect class="cls-5" x="68.95" y="106.95" width="75.86" height="72.64"/>
    <rect class="cls-5" x="144.82" y="154.14" width="398.38" height="42.25"/>
    <rect class="cls-5" x=".5" y="179.59" width="61.46" height="16.8"/>
    <rect class="cls-5" x="61.96" y="179.59" width="16.8" height="16.8"/>
    <rect class="cls-5" x="78.76" y="179.59" width="66.05" height="16.8"/>
    <line class="cls-5" x1="543.19" y1="196.4" x2="543.19" y2="225.48"/>
    <line class="cls-5" x1="144.82" y1="179.59" x2="543.19" y2="179.59"/>
    <line class="cls-5" x1="327.82" y1="154.14" x2="327.82" y2="179.59"/>
    <line class="cls-5" x1="355.39" y1="154.14" x2="355.39" y2="179.59"/>
    <rect class="cls-5" x="543.19" y="58.12" width="33.82" height="121.47"/>
    <rect class="cls-5" x="543.19" y="196.4" width="33.82" height="93.83"/>
    <rect class="cls-5" x="586.95" y="58.12" width="44.04" height="55.56"/>
    <rect class="cls-5" x="596.56" y="113.68" width="34.43" height="159.13"/>
    <line class="cls-5" x1="596.56" y1="272.81" x2="577.01" y2="272.81"/>
    <line class="cls-5" x1="586.95" y1="85.9" x2="630.99" y2="85.9"/>
    <rect class="cls-5" x="294.62" y="20.8" width="44.45" height="89.72"/>
    <rect class="cls-5" x="356.49" y="20.8" width="43.21" height="81.62"/>
    <line class="cls-5" x1="294.62" y1="56.85" x2="339.07" y2="56.85"/>
    <line class="cls-5" x1="294.62" y1="66.11" x2="339.07" y2="66.11"/>
    <line class="cls-5" x1="294.62" y1="101.29" x2="339.07" y2="101.29"/>
    <line class="cls-5" x1="356.49" y1="58.05" x2="399.7" y2="58.05"/>
    <line class="cls-5" x1="103.83" y1="20.12" x2="144.82" y2="20.12"/>
    <line class="cls-5" x1="125.13" y1="53.73" x2="125.13" y2="20.12"/>
    <line class="cls-5" x1="127.5" y1="53.73" x2="127.5" y2="70.43"/>
    <line class="cls-5" x1="47.14" y1="55.65" x2="81.99" y2="55.65"/>
    <line class="cls-5" x1="81.99" y1="28.76" x2="47.14" y2="28.76"/>
    <line class="cls-5" x1="98.38" y1="196.4" x2="98.38" y2="225.48"/>
    <text class="cls-3" transform="translate(53.69 19.17)"><tspan x="0" y="0">GB7</tspan></text>
    <text class="cls-3" transform="translate(54.02 46.21)"><tspan x="0" y="0">GB4</tspan></text>
    <text class="cls-3" transform="translate(53.52 70.43)"><tspan x="0" y="0">GB5</tspan></text>
    <line class="cls-5" x1="47.48" y1="79.89" x2="81.99" y2="79.89"/>
    <text class="cls-3" transform="translate(53.85 96.97)"><tspan x="0" y="0">GB6</tspan></text>
    <text class="cls-3" transform="translate(112.13 82.7)"><tspan x="0" y="0">GB2</tspan></text>
    <text class="cls-3" transform="translate(112.62 102.04)"><tspan x="0" y="0">GB1</tspan></text>
    <text class="cls-2" transform="translate(106.88 37.91)"><tspan x="0" y="0">GB3a</tspan></text>
    <text class="cls-1" transform="translate(110.09 12.96)"><tspan class="cls-4" x="0" y="0">W</tspan><tspan class="cls-11" x="7.64" y="0">restle</tspan></text>
    <text class="cls-3" transform="translate(23.03 131.84)"><tspan x="0" y="0">Girls</tspan><tspan x="-5.83" y="14.64">Lo</tspan><tspan class="cls-9" x="6.7" y="14.64">c</tspan><tspan class="cls-8" x="12.45" y="14.64">k</tspan><tspan x="18.78" y="14.64">er</tspan><tspan class="cls-8" x="-3.91" y="29.29">R</tspan><tspan x="3.77" y="29.29">oom</tspan></text>
    <text class="cls-3" transform="translate(93.2 131.84)"><tspan x="0" y="0">B</tspan><tspan class="cls-10" x="7.41" y="0">o</tspan><tspan x="13.65" y="0">ys</tspan><tspan x="-5.24" y="14.64">Lo</tspan><tspan class="cls-9" x="7.3" y="14.64">c</tspan><tspan class="cls-8" x="13.04" y="14.64">k</tspan><tspan x="19.37" y="14.64">er</tspan><tspan class="cls-8" x="-3.31" y="29.29">R</tspan><tspan x="4.37" y="29.29">oom</tspan></text>
    <text class="cls-3" transform="translate(307.13 42.89)"><tspan x="0" y="0">M3</tspan></text>
    <text class="cls-3" transform="translate(308.38 89.36)"><tspan x="0" y="0">RR</tspan></text>
    <text class="cls-3" transform="translate(369.8 42.89)"><tspan x="0" y="0">M2</tspan></text>
    <text class="cls-3" transform="translate(369.72 84.34)"><tspan x="0" y="0">M1</tspan></text>
    <text class="cls-3" transform="translate(599.66 76.04)"><tspan x="0" y="0">H11</tspan></text>
    <text class="cls-3" transform="translate(598.76 103.52)"><tspan x="0" y="0">H</tspan><tspan class="cls-7" x="7.82" y="0">1</tspan><tspan x="15.13" y="0">2</tspan></text>
    <text class="cls-2" transform="translate(132.5 64.08)"><tspan x="0" y="0">TR</tspan></text>
    <text class="cls-2" transform="translate(127.5 38.04)"><tspan x="0" y="0">GB3b</tspan></text>
  </g>
</svg>