<?xml version="1.0" encoding="UTF-8"?>
<svg id="Layer_2" data-name="Layer 2" xmlns="http://www.w3.org/2000/svg" viewBox="0 0 701.13 365.17">
  <defs>
    <style>
      .cls-1 {
        letter-spacing: .02em;
      }

      .cls-2 {
        letter-spacing: 0em;
      }

      .cls-3 {
        letter-spacing: -.01em;
      }

      .cls-4 {
        fill: none;
      }

      .cls-4, .cls-5, .cls-6 {
        stroke: #000;
        stroke-miterlimit: 10;
      }

      .cls-7 {
        font-size: 7.07px;
      }

      .cls-7, .cls-8, .cls-9, .cls-10, .cls-11, .cls-12, .cls-13 {
        font-family: FranklinGothic-Medium, 'Franklin Gothic Medium';
        font-weight: 500;
      }

      .cls-8 {
        font-size: 9.01px;
      }

      .cls-14 {
        letter-spacing: 0em;
      }

      .cls-15 {
        letter-spacing: -.02em;
      }

      .cls-16 {
        letter-spacing: 0em;
      }

      .cls-17, .cls-18 {
        stroke-width: 0px;
      }

      .cls-19 {
        letter-spacing: -.07em;
      }

      .cls-20 {
        letter-spacing: 0em;
      }

      .cls-21 {
        letter-spacing: 0em;
      }

      .cls-22 {
        letter-spacing: -.01em;
      }

      .cls-23 {
        letter-spacing: 0em;
      }

      .cls-18, .cls-6 {
        fill: #ff6464;
      }

      .cls-24 {
        letter-spacing: .02em;
      }

      .cls-9 {
        font-size: 11.01px;
      }

      .cls-10 {
        font-size: 13.58px;
      }

      .cls-25 {
        letter-spacing: -.01em;
      }

      .cls-11 {
        font-size: 10.5px;
      }

      .cls-5 {
        fill: #fff;
      }

      .cls-26 {
        letter-spacing: -.02em;
      }

      .cls-27 {
        letter-spacing: 0em;
      }

      .cls-28 {
        letter-spacing: 0em;
      }

      .cls-12 {
        font-size: 2.59px;
      }

      .cls-29 {
        letter-spacing: .02em;
      }

      .cls-13 {
        font-size: 6.64px;
      }

      .cls-30 {
        letter-spacing: .01em;
      }
    </style>
  </defs>
  <g id="Layer_2-2" data-name="Layer 2">
    <polygon class="cls-6" points="647.42 91.04 610.79 91.04 592.68 91.04 592.68 119.44 610.79 119.44 610.79 195.98 458.1 195.98 458.1 63.88 371.27 63.88 371.27 195.98 255.62 195.98 255.62 .5 135.04 .5 135.04 114.5 72.07 114.5 72.07 223.15 111.99 223.15 111.99 278.29 610.79 278.29 610.79 359.78 700.51 359.78 700.51 91.04 647.42 91.04"/>
    <rect class="cls-4" x="111.99" y="241.46" width="44.65" height="36.83"/>
    <rect class="cls-4" x="156.65" y="258.44" width="103.24" height="19.86"/>
    <rect class="cls-4" x="271.98" y="250.99" width="131.66" height="27.3"/>
    <rect class="cls-4" x="421.89" y="250.99" width="188.9" height="27.3"/>
    <rect class="cls-4" x="610.79" y="250.99" width="36.63" height="108.79"/>
    <rect class="cls-4" x="592.68" y="91.04" width="54.74" height="28.4"/>
    <rect class="cls-4" x="610.78" y="127.26" width="36.63" height="99.05"/>
    <g>
      <rect class="cls-4" x="422.85" y="134.94" width="35.26" height="61.05"/>
      <rect class="cls-4" x="422.85" y="91.04" width="35.26" height="36.22"/>
    </g>
    <g>
      <rect class="cls-4" x="271.98" y="195.98" width="133.17" height="30.32"/>
      <rect class="cls-4" x="422.85" y="195.98" width="187.94" height="30.32"/>
    </g>
    <rect class="cls-4" x="371.27" y="91.04" width="33.88" height="104.94"/>
    <rect class="cls-4" x="665.45" y="127.26" width="35.19" height="214.62"/>
    <rect class="cls-4" x="135.04" y=".5" width="120.58" height="26.13"/>
    <rect class="cls-4" x="72.07" y="114.5" width="138.69" height="108.24"/>
    <rect class="cls-4" x="440.48" y="215.46" width="18.18" height="10.84"/>
    <line class="cls-6" x1="458.65" y1="215.46" x2="458.65" y2="195.98"/>
    <line class="cls-6" x1="511.06" y1="195.98" x2="511.06" y2="226.3"/>
    <line class="cls-4" x1="546.66" y1="195.98" x2="546.66" y2="226.3"/>
    <line class="cls-4" x1="590.62" y1="195.98" x2="590.62" y2="226.3"/>
    <line class="cls-4" x1="308.16" y1="195.98" x2="308.16" y2="226.3"/>
    <line class="cls-4" x1="351.92" y1="195.98" x2="351.92" y2="226.3"/>
    <line class="cls-4" x1="360.57" y1="195.98" x2="360.57" y2="226.3"/>
    <line class="cls-4" x1="610.79" y1="214.92" x2="647.42" y2="214.92"/>
    <line class="cls-4" x1="610.79" y1="192.28" x2="647.42" y2="192.28"/>
    <line class="cls-4" x1="647.42" y1="163.47" x2="610.79" y2="163.47"/>
    <line class="cls-4" x1="610.79" y1="145.67" x2="647.42" y2="145.67"/>
    <line class="cls-4" x1="610.79" y1="91.04" x2="610.79" y2="119.44"/>
    <line class="cls-4" x1="631.78" y1="91.04" x2="631.78" y2="119.44"/>
    <line class="cls-4" x1="665.32" y1="163.47" x2="700.51" y2="163.47"/>
    <line class="cls-4" x1="665.32" y1="198.04" x2="700.51" y2="198.04"/>
    <line class="cls-4" x1="665.32" y1="231.07" x2="700.51" y2="231.07"/>
    <line class="cls-4" x1="665.32" y1="261.94" x2="700.51" y2="261.94"/>
    <line class="cls-4" x1="665.32" y1="297.43" x2="700.51" y2="297.43"/>
    <line class="cls-4" x1="700.51" y1="323.67" x2="665.32" y2="323.67"/>
    <line class="cls-4" x1="647.42" y1="332.41" x2="610.79" y2="332.41"/>
    <line class="cls-4" x1="610.79" y1="305.97" x2="647.42" y2="305.97"/>
    <line class="cls-4" x1="610.79" y1="288.17" x2="647.42" y2="288.17"/>
    <line class="cls-4" x1="647.42" y1="265.23" x2="610.79" y2="265.23"/>
    <line class="cls-4" x1="561.4" y1="250.99" x2="561.4" y2="278.29"/>
    <line class="cls-4" x1="517.47" y1="250.99" x2="517.47" y2="278.29"/>
    <line class="cls-4" x1="466.33" y1="250.99" x2="466.33" y2="278.29"/>
    <line class="cls-4" x1="307.2" y1="250.99" x2="307.2" y2="278.29"/>
    <line class="cls-4" x1="333.68" y1="250.99" x2="333.68" y2="278.29"/>
    <line class="cls-4" x1="368.39" y1="250.99" x2="368.39" y2="278.29"/>
    <rect class="cls-6" x="18.76" y="17.67" width="68.59" height="90.7" transform="translate(-24.4 34.97) rotate(-30)"/>
    <line class="cls-4" x1="209.94" y1="258.44" x2="209.94" y2="278.29"/>
    <path class="cls-6" d="m151.12,278.29l-.52,51.86h-39.32l-35.39,3.68c-9.26-24.96,4.53-44.29,4.53-44.29l31.58-35.84v24.59h39.12Z"/>
    <line class="cls-6" x1="210.76" y1="114.5" x2="255.62" y2="114.5"/>
    <text class="cls-10" transform="translate(106.48 172.2)"><tspan x="0" y="0">Gymnasium</tspan></text>
    <text class="cls-10" transform="translate(169.38 70.57)"><tspan x="0" y="0">Ca</tspan><tspan class="cls-20" x="15.21" y="0">f</tspan><tspan class="cls-28" x="19.38" y="0">e</tspan><tspan class="cls-22" x="26.42" y="0">t</tspan><tspan x="30.6" y="0">eria</tspan></text>
    <text class="cls-10" transform="translate(173.98 17.48)"><tspan x="0" y="0">Kit</tspan><tspan class="cls-14" x="16.03" y="0">c</tspan><tspan x="22.43" y="0">hen</tspan></text>
    <text class="cls-10" transform="translate(22.88 66.59)"><tspan x="0" y="0">Small Gym</tspan></text>
    <text class="cls-8" transform="translate(215.95 270.74)"><tspan x="0" y="0">Cus</tspan><tspan class="cls-26" x="14.18" y="0">t</tspan><tspan x="16.92" y="0">odian</tspan></text>
    <text class="cls-10" transform="translate(281.18 268.22)"><tspan x="0" y="0">O1</tspan></text>
    <text class="cls-10" transform="translate(342.06 268.22)"><tspan x="0" y="0">O2</tspan></text>
    <text class="cls-10" transform="translate(377.21 268.22)"><tspan x="0" y="0">O3</tspan></text>
    <text class="cls-10" transform="translate(435.2 268.22)"><tspan x="0" y="0">O4</tspan></text>
    <text class="cls-10" transform="translate(483.11 268.22)"><tspan x="0" y="0">O5</tspan></text>
    <text class="cls-10" transform="translate(576.67 268.22)"><tspan x="0" y="0">O7</tspan></text>
    <text class="cls-10" transform="translate(374.88 214.72)"><tspan class="cls-19" x="0" y="0">F</tspan><tspan x="5.92" y="0">.L</tspan></text>
    <text class="cls-9" transform="translate(378.49 167.19)"><tspan x="0" y="0">Lib1</tspan></text>
    <text class="cls-10" transform="translate(467.58 214.72)"><tspan x="0" y="0">O</tspan><tspan class="cls-1" x="8.74" y="0">f</tspan><tspan class="cls-27" x="13.33" y="0">f</tspan><tspan x="17.54" y="0">ice</tspan></text>
    <text class="cls-10" transform="translate(521.52 214.72)"><tspan x="0" y="0">VP</tspan></text>
    <text class="cls-10" transform="translate(617.03 181.67)"><tspan x="0" y="0">N8a</tspan></text>
    <text class="cls-10" transform="translate(617.05 208.83)"><tspan x="0" y="0">N8b</tspan></text>
    <text class="cls-11" transform="translate(619.17 158.19)"><tspan x="0" y="0">N7D</tspan></text>
    <text class="cls-11" transform="translate(619.57 140.38)"><tspan x="0" y="0">N7C</tspan></text>
    <text class="cls-10" transform="translate(674.64 150.53)"><tspan x="0" y="0">N6</tspan></text>
    <text class="cls-10" transform="translate(674.64 185.82)"><tspan x="0" y="0">N5</tspan></text>
    <text class="cls-10" transform="translate(674.64 219.11)"><tspan x="0" y="0">N4</tspan></text>
    <text class="cls-10" transform="translate(674.64 251.27)"><tspan x="0" y="0">N3</tspan></text>
    <text class="cls-10" transform="translate(674.64 284.53)"><tspan x="0" y="0">N2</tspan></text>
    <text class="cls-10" transform="translate(674.64 314.9)"><tspan x="0" y="0">N1</tspan></text>
    <text class="cls-10" transform="translate(620.67 281.53)"><tspan x="0" y="0">N9</tspan></text>
    <text class="cls-10" transform="translate(616.76 301.68)"><tspan x="0" y="0">N</tspan><tspan class="cls-23" x="8.83" y="0">1</tspan><tspan x="16.66" y="0">0</tspan></text>
    <text class="cls-10" transform="translate(616.71 324.33)"><tspan x="0" y="0">N11</tspan></text>
    <text class="cls-10" transform="translate(616.59 350.53)"><tspan x="0" y="0">N</tspan><tspan class="cls-30" x="8.83" y="0">1</tspan><tspan class="cls-16" x="16.96" y="0">2</tspan></text>
    <text class="cls-10" transform="translate(530.07 268.22)"><tspan x="0" y="0">O6</tspan></text>
    <text class="cls-8" transform="translate(98.62 307.97)"><tspan x="0" y="0">Thea</tspan><tspan class="cls-3" x="18.84" y="0">t</tspan><tspan class="cls-21" x="21.62" y="0">er</tspan></text>
    <line class="cls-4" x1="371.27" y1="138.86" x2="405.15" y2="138.86"/>
    <line class="cls-4" x1="371.02" y1="127.26" x2="405.15" y2="127.26"/>
    <line class="cls-4" x1="371.27" y1="187.53" x2="405.15" y2="187.53"/>
    <polyline class="cls-4" points="185.99 114.5 185.99 147.08 210.76 147.08"/>
    <g>
      <rect class="cls-18" x="71.47" y="196.43" width="7.25" height="7.81"/>
      <g>
        <path class="cls-4" d="m78.72,204.67c-.57,0-12.08,0-12.08,0"/>
        <line class="cls-4" x1="78.72" y1="195.98" x2="66.64" y2="195.98"/>
      </g>
    </g>
    <g>
      <rect class="cls-18" x="85.58" y="216.42" width="7.25" height="7.81" transform="translate(-131.11 309.53) rotate(-90)"/>
      <g>
        <path class="cls-4" d="m93.55,216.7c0,.57,0,12.08,0,12.08"/>
        <line class="cls-4" x1="84.86" y1="216.7" x2="84.86" y2="228.77"/>
      </g>
    </g>
    <g>
      <rect class="cls-18" x="163.81" y="216.42" width="7.25" height="7.81" transform="translate(-52.89 387.76) rotate(-90)"/>
      <g>
        <path class="cls-4" d="m171.77,216.7c0,.57,0,12.08,0,12.08"/>
        <line class="cls-4" x1="163.08" y1="216.7" x2="163.08" y2="228.77"/>
      </g>
    </g>
    <g>
      <rect class="cls-18" x="204.73" y="127.69" width="7.25" height="7.81" transform="translate(416.7 263.19) rotate(180)"/>
      <g>
        <path class="cls-4" d="m204.73,127.26c.57,0,12.08,0,12.08,0"/>
        <line class="cls-4" x1="204.73" y1="135.94" x2="216.8" y2="135.94"/>
      </g>
    </g>
    <g>
      <rect class="cls-18" x="179.96" y="127.69" width="7.25" height="7.81" transform="translate(367.16 263.19) rotate(180)"/>
      <g>
        <path class="cls-4" d="m179.96,127.25c.57,0,12.08,0,12.08,0"/>
        <line class="cls-4" x1="179.96" y1="135.94" x2="192.03" y2="135.94"/>
      </g>
    </g>
    <path class="cls-17" d="m195.15,117.5v.9h-1.81v.91s0,.91,0,.91h-.91s-.91,0-.91,0v.92s0,.92,0,.92h-1.8v1.84h-1.81v.93h2.7v-1.85h.91s.91,0,.91,0v-1.83h1.81v-1.84h1.81v-1.81h1.79v-.92h-2.69v.9Z"/>
    <text class="cls-12" transform="translate(195.14 123.09)"><tspan x="0" y="0">Basement</tspan></text>
    <polyline class="cls-4" points="259.88 258.44 259.88 250.99 271.98 250.99"/>
    <g>
      <circle class="cls-17" cx="265.93" cy="261.02" r=".87"/>
      <path class="cls-17" d="m265.81,267.4v3.02c0,.55-.82.55-.83,0v-3.02h-1.07s1.15-4.04,1.15-4.04h-.19s-.67,2.3-.67,2.3c-.17.51-.86.3-.7-.24l.75-2.49c.09-.29.45-.79,1.07-.8h.56s.64,0,.64,0c.61.01.97.52,1.07.8l.75,2.49c.15.54-.53.76-.7.24l-.67-2.3h-.21s1.18,4.04,1.18,4.04h-1.1v3.02c0,.55-.81.55-.8,0v-3.02h-.24Z"/>
    </g>
    <g>
      <circle class="cls-17" cx="356.25" cy="205.81" r=".81"/>
      <path class="cls-17" d="m355.39,206.84c-.62,0-1.02.54-1.02,1.07v2.48c0,.48.69.48.69,0v-2.28s.17,0,.17,0v6.3c-.01.66.92.64.92,0v-3.67s.15,0,.15,0v3.67c.01.64.95.66.94,0v-6.3s.17,0,.17,0v2.28c0,.49.69.49.69,0v-2.48c0-.53-.42-1.06-1.04-1.07h-1.69Z"/>
    </g>
    <g>
      <rect class="cls-18" x="248.9" y="126.33" width="7.25" height="7.81" transform="translate(505.06 260.48) rotate(180)"/>
      <g>
        <path class="cls-4" d="m248.9,125.9c.57,0,12.08,0,12.08,0"/>
        <line class="cls-4" x1="248.9" y1="134.58" x2="260.98" y2="134.58"/>
      </g>
    </g>
    <g>
      <rect class="cls-18" x="228.92" y="108.18" width="7.25" height="7.81" transform="translate(120.46 344.63) rotate(-90)"/>
      <g>
        <path class="cls-4" d="m236.88,108.46c0,.57,0,12.08,0,12.08"/>
        <line class="cls-4" x1="228.2" y1="108.46" x2="228.2" y2="120.54"/>
      </g>
    </g>
    <g>
      <rect class="cls-18" x="131.92" y="239.97" width="7.25" height="7.81" transform="translate(379.42 108.33) rotate(90)"/>
      <g>
        <path class="cls-4" d="m131.21,247.5c0-.57,0-12.08,0-12.08"/>
        <line class="cls-4" x1="139.89" y1="247.5" x2="139.89" y2="235.42"/>
      </g>
    </g>
    <g>
      <rect class="cls-18" x="111.42" y="244.19" width="6.16" height="6.63"/>
      <g>
        <path class="cls-4" d="m117.58,251.19c-.48,0-10.26,0-10.26,0"/>
        <line class="cls-4" x1="117.58" y1="243.81" x2="107.32" y2="243.81"/>
      </g>
    </g>
    <g>
      <rect class="cls-18" x="111.31" y="265.17" width="7.25" height="7.81"/>
      <g>
        <path class="cls-4" d="m118.56,273.41c-.57,0-12.08,0-12.08,0"/>
        <line class="cls-4" x1="118.56" y1="264.72" x2="106.48" y2="264.72"/>
      </g>
    </g>
    <g>
      <rect class="cls-18" x="151.67" y="274.29" width="4.41" height="4.99" transform="translate(-122.92 430.66) rotate(-90)"/>
      <g>
        <path class="cls-4" d="m156.65,274.58c0,.34,0,7.34,0,7.34"/>
        <line class="cls-4" x1="151.09" y1="274.58" x2="151.09" y2="281.92"/>
      </g>
    </g>
    <path class="cls-17" d="m389.62,189.25v.7h-1.41v.71s0,.71,0,.71h-.71s-.71,0-.71,0v.72s0,.72,0,.72h-1.4v1.43h-1.41v.73h2.1v-1.44h.71s.71,0,.71,0v-1.42h1.42v-1.43h1.41v-1.41h1.4v-.72h-2.1v.7Z"/>
    <g>
      <rect class="cls-18" x="370.77" y="187.96" width="5.68" height="7.6"/>
      <g>
        <path class="cls-4" d="m376.45,195.98c-.44,0-9.47,0-9.47,0"/>
        <line class="cls-4" x1="376.45" y1="187.53" x2="366.98" y2="187.53"/>
      </g>
    </g>
    <g>
      <rect class="cls-18" x="409.14" y="271.44" width="7.25" height="7.81" transform="translate(137.43 688.11) rotate(-90)"/>
      <g>
        <path class="cls-4" d="m417.11,271.72c0,.57,0,12.08,0,12.08"/>
        <line class="cls-4" x1="408.42" y1="271.72" x2="408.42" y2="283.79"/>
      </g>
    </g>
    <line class="cls-4" x1="629.1" y1="250.99" x2="629.1" y2="265.23"/>
    <g>
      <circle class="cls-17" cx="620.15" cy="253.64" r=".87"/>
      <path class="cls-17" d="m620.03,260.02v3.02c0,.55-.82.55-.83,0v-3.02h-1.07s1.15-4.04,1.15-4.04h-.19s-.67,2.3-.67,2.3c-.17.51-.86.3-.7-.24l.75-2.49c.09-.29.45-.79,1.07-.8h.56s.64,0,.64,0c.61.01.97.52,1.07.8l.75,2.49c.15.54-.53.76-.7.24l-.67-2.3h-.21s1.18,4.04,1.18,4.04h-1.1v3.02c0,.55-.81.55-.8,0v-3.02h-.24Z"/>
    </g>
    <g>
      <circle class="cls-17" cx="634.21" cy="258.11" r=".81"/>
      <path class="cls-17" d="m635.24,258.97c0,.62.54,1.02,1.07,1.02h2.48c.48,0,.48-.69,0-.69h-2.28s0-.17,0-.17h6.3c.66.01.64-.92,0-.92h-3.67s0-.15,0-.15h3.67c.64-.01.66-.95,0-.94h-6.3s0-.17,0-.17h2.28c.49,0,.49-.69,0-.69h-2.48c-.53,0-1.06.42-1.07,1.04v1.69Z"/>
    </g>
    <text class="cls-10" transform="translate(674.27 337.12)"><tspan x="0" y="0">HH</tspan></text>
    <g>
      <rect class="cls-18" x="660.37" y="90.2" width="7.25" height="7.81" transform="translate(758.1 -569.9) rotate(90)"/>
      <g>
        <path class="cls-4" d="m659.66,97.73c0-.57,0-12.08,0-12.08"/>
        <line class="cls-4" x1="668.35" y1="97.73" x2="668.35" y2="85.65"/>
      </g>
    </g>
    <path class="cls-17" d="m688.67,103.29v1.56h-3.12v1.56s0,1.56,0,1.56h-1.57s-1.57,0-1.57,0v1.59s0,1.59,0,1.59h-3.1v3.17h-3.12v1.6h4.65v-3.18h1.56s1.56,0,1.56,0v-3.15h3.13v-3.17h3.12v-3.12h3.09v-1.59h-4.64v1.56Z"/>
    <g>
      <rect class="cls-18" x="652.72" y="352.81" width="7.25" height="7.81" transform="translate(299.63 1013.07) rotate(-90)"/>
      <g>
        <path class="cls-4" d="m660.69,353.09c0,.57,0,12.08,0,12.08"/>
        <line class="cls-4" x1="652" y1="353.09" x2="652" y2="365.17"/>
      </g>
    </g>
    <path class="cls-17" d="m685.89,346.49v1.14h-2.27v1.14s0,1.14,0,1.14h-1.15s-1.15,0-1.15,0v1.16s0,1.16,0,1.16h-2.26v2.31h-2.27v1.17h3.39v-2.32h1.14s1.14,0,1.14,0v-2.29h2.28v-2.31h2.27v-2.27h2.25v-1.16h-3.38v1.14Z"/>
    <g>
      <rect class="cls-18" x="451.58" y="127.64" width="7.25" height="6.9" transform="translate(910.42 262.18) rotate(180)"/>
      <g>
        <path class="cls-4" d="m451.58,127.25c.57,0,12.08,0,12.08,0"/>
        <line class="cls-4" x1="451.58" y1="134.94" x2="463.66" y2="134.94"/>
      </g>
    </g>
    <line class="cls-4" x1="405.15" y1="91.04" x2="422.85" y2="91.04"/>
    <g>
      <rect class="cls-18" x="410.37" y="89.55" width="7.25" height="7.81" transform="translate(507.45 -320.54) rotate(90)"/>
      <g>
        <path class="cls-4" d="m409.66,97.08c0-.57,0-12.08,0-12.08"/>
        <line class="cls-4" x1="418.34" y1="97.08" x2="418.34" y2="85"/>
      </g>
    </g>
    <text class="cls-9" transform="translate(398.5 80.37)"><tspan x="0" y="0">Libra</tspan><tspan class="cls-29" x="23.72" y="0">r</tspan><tspan x="27.64" y="0">y</tspan></text>
    <g>
      <rect class="cls-18" x="598.21" y="112.73" width="7.25" height="7.81" transform="translate(485.2 718.48) rotate(-90)"/>
      <g>
        <path class="cls-4" d="m606.18,113.01c0,.57,0,12.08,0,12.08"/>
        <line class="cls-4" x1="597.49" y1="113.01" x2="597.49" y2="125.09"/>
      </g>
    </g>
    <text class="cls-13" transform="translate(633.55 106.88)"><tspan x="0" y="0">N7A</tspan></text>
    <text class="cls-13" transform="translate(615.58 106.93)"><tspan x="0" y="0">N7B</tspan></text>
    <text class="cls-7" transform="translate(593.49 104.55)"><tspan x="0" y="0">SPED</tspan><tspan x="3.31" y="6.37">Ofc</tspan></text>
    <g>
      <rect class="cls-18" x="596.7" y="195.08" width="7.25" height="7.81" transform="translate(799.31 -401.34) rotate(90)"/>
      <g>
        <path class="cls-4" d="m595.99,202.61c0-.57,0-12.08,0-12.08"/>
        <line class="cls-4" x1="604.67" y1="202.61" x2="604.67" y2="190.54"/>
      </g>
    </g>
    <path class="cls-17" d="m603.88,208.79v1.41h-2.82v1.41s0,1.42,0,1.42h-1.42s-1.42,0-1.42,0v1.44s0,1.44,0,1.44h-2.81v2.87h-2.82v1.45h4.22v-2.88h1.42s1.42,0,1.42,0v-2.85h2.84v-2.87h2.82v-2.82h2.8v-1.44h-4.2v1.41Z"/>
    <g>
      <rect class="cls-18" x="248.95" y="40.4" width="7.25" height="7.81" transform="translate(505.16 88.6) rotate(180)"/>
      <g>
        <path class="cls-4" d="m248.95,39.96c.57,0,12.08,0,12.08,0"/>
        <line class="cls-4" x1="248.95" y1="48.65" x2="261.03" y2="48.65"/>
      </g>
    </g>
    <path class="cls-17" d="m264.29,198.75v.82h-1.65v.83s0,.83,0,.83h-.83s-.83,0-.83,0v.84s0,.84,0,.84h-1.64v1.68h-1.65v.85h2.46v-1.68h.83s.83,0,.83,0v-1.67h1.66v-1.68h1.65v-1.65h1.63v-.84h-2.46v.82Z"/>
    <line class="cls-5" x1="422.85" y1="153.75" x2="458.1" y2="153.75"/>
    <text class="cls-9" transform="translate(426.24 148.6)"><tspan x="0" y="0">CR EO</tspan></text>
    <text class="cls-9" transform="translate(424.88 172.2)"><tspan x="0" y="0">Career</tspan><tspan x=".12" y="11">Cen</tspan><tspan class="cls-25" x="18.24" y="11">t</tspan><tspan x="21.64" y="11">er</tspan></text>
    <text class="cls-9" transform="translate(434.24 208.96)"><tspan class="cls-15" x="0" y="0">F</tspan><tspan x="5.38" y="0">O</tspan></text>
    <text class="cls-10" transform="translate(559.76 214.72)"><tspan x="0" y="0">PO</tspan></text>
    <text class="cls-10" transform="translate(312.32 268.37)"><tspan x="0" y="0">CO</tspan></text>
    <text class="cls-10" transform="translate(170.77 272.97)"><tspan x="0" y="0">ADO</tspan></text>
    <polyline class="cls-4" points="255.62 195.98 255.62 226.3 271.98 226.3"/>
    <g>
      <rect class="cls-18" x="251.47" y="216.43" width="4.98" height="5.36" transform="translate(507.93 438.22) rotate(180)"/>
      <g>
        <path class="cls-4" d="m251.47,216.13c.39,0,8.3,0,8.3,0"/>
        <line class="cls-4" x1="251.47" y1="222.1" x2="259.77" y2="222.1"/>
      </g>
    </g>
    <g>
      <rect class="cls-18" x="263.44" y="222.16" width="4.98" height="5.36" transform="translate(41.09 490.78) rotate(-90)"/>
      <g>
        <path class="cls-4" d="m268.92,222.35c0,.39,0,8.3,0,8.3"/>
        <line class="cls-4" x1="262.95" y1="222.35" x2="262.95" y2="230.65"/>
      </g>
    </g>
    <text class="cls-8" transform="translate(278.39 214.89)"><tspan x="0" y="0">Clinic</tspan></text>
    <text class="cls-8" transform="translate(318.95 214.72)"><tspan x="0" y="0">C &amp; R</tspan></text>
    <text class="cls-9" transform="translate(381.15 108.46)"><tspan x="0" y="0">Lib</tspan><tspan x="-2.65" y="11">O</tspan><tspan class="cls-24" x="4.44" y="11">f</tspan><tspan class="cls-2" x="8.16" y="11">fc</tspan></text>
    <text class="cls-9" transform="translate(426.62 108.46)"><tspan x="0" y="0">Comp</tspan><tspan x="5.17" y="11">Lab</tspan></text>
    <text class="cls-9" transform="translate(381.76 136.76)"><tspan x="0" y="0">SP</tspan></text>
    <line class="cls-4" x1="233.88" y1=".5" x2="233.88" y2="26.63"/>
    <text class="cls-10" transform="translate(235.18 17.62)"><tspan x="0" y="0">Ldr</tspan></text>
  </g>
</svg>